<?xml version="1.0" encoding="utf-8"?>
<svg width="780.680029296875px" height="116.96000366210937px" viewBox="-140.3400146484375 16.519998168945314 780.680029296875 116.96000366210937" style="background: rgba(0, 0, 0, 0);" preserveAspectRatio="xMidYMid" xmlns="http://www.w3.org/2000/svg">
  <defs>
    <linearGradient id="editing-gradient-gradient" x1="0.4651217631279373" x2="0.5348782368720627" y1="0.0012179748700879012" y2="0.9987820251299121" gradientUnits="objectBoundingBox">
      <stop offset="0" stop-color="#000000"/>
      <stop offset="1" stop-color="#909494"/>
    </linearGradient>
  </defs>
  <g style="" transform="matrix(1.33613, 0, 0, 1.795698, -85.132271, -60.151859)">
    <g transform="translate(-35.75996255874634, 100.15000343322754)">
      <path d="M11.39-2.50L11.39-2.50Q11.39-1.41 10.69-0.70L10.69-0.70L10.69-0.70Q9.98 0 8.90 0L8.90 0L8.90 0Q7.81 0 7.10-0.70L7.10-0.70L7.10-0.70Q6.40-1.41 6.40-2.50L6.40-2.50L6.40-47.49L6.40-47.49Q6.40-48.58 7.10-49.28L7.10-49.28L7.10-49.28Q7.81-49.98 8.90-49.98L8.90-49.98L21.70-49.98L21.70-49.98Q26.37-49.98 30.05-47.90L30.05-47.90L30.05-47.90Q33.73-45.82 35.78-42.14L35.78-42.14L35.78-42.14Q37.82-38.46 37.82-33.73L37.82-33.73L37.82-33.73Q37.82-29.06 35.78-25.41L35.78-25.41L35.78-25.41Q33.73-21.76 30.05-19.71L30.05-19.71L30.05-19.71Q26.37-17.66 21.70-17.66L21.70-17.66L11.39-17.66L11.39-2.50ZM21.70-22.46L21.70-22.46Q24.96-22.46 27.52-23.90L27.52-23.90L27.52-23.90Q30.08-25.34 31.52-27.90L31.52-27.90L31.52-27.90Q32.96-30.46 32.96-33.73L32.96-33.73L32.96-33.73Q32.96-37.06 31.52-39.65L31.52-39.65L31.52-39.65Q30.08-42.24 27.52-43.71L27.52-43.71L27.52-43.71Q24.96-45.18 21.70-45.18L21.70-45.18L11.39-45.18L11.39-22.46L21.70-22.46ZM60.86-35.33L60.86-35.33Q65.92-35.33 69.95-33.02L69.95-33.02L69.95-33.02Q73.98-30.72 76.32-26.62L76.32-26.62L76.32-26.62Q78.66-22.53 78.66-17.47L78.66-17.47L78.66-17.47Q78.66-12.42 76.35-8.35L76.35-8.35L76.35-8.35Q74.05-4.29 69.98-1.98L69.98-1.98L69.98-1.98Q65.92 0.32 60.86 0.32L60.86 0.32L60.86 0.32Q55.81 0.32 51.74-1.98L51.74-1.98L51.74-1.98Q47.68-4.29 45.38-8.35L45.38-8.35L45.38-8.35Q43.07-12.42 43.07-17.47L43.07-17.47L43.07-17.47Q43.07-22.53 45.38-26.62L45.38-26.62L45.38-26.62Q47.68-30.72 51.74-33.02L51.74-33.02L51.74-33.02Q55.81-35.33 60.86-35.33L60.86-35.33ZM60.86-30.85L60.86-30.85Q57.22-30.85 54.24-29.12L54.24-29.12L54.24-29.12Q51.26-27.39 49.57-24.35L49.57-24.35L49.57-24.35Q47.87-21.31 47.87-17.47L47.87-17.47L47.87-17.47Q47.87-13.70 49.57-10.66L49.57-10.66L49.57-10.66Q51.26-7.62 54.24-5.89L54.24-5.89L54.24-5.89Q57.22-4.16 60.86-4.16L60.86-4.16L60.86-4.16Q64.58-4.16 67.52-5.89L67.52-5.89L67.52-5.89Q70.46-7.62 72.13-10.66L72.13-10.66L72.13-10.66Q73.79-13.70 73.79-17.47L73.79-17.47L73.79-17.47Q73.79-21.31 72.13-24.35L72.13-24.35L72.13-24.35Q70.46-27.39 67.52-29.12L67.52-29.12L67.52-29.12Q64.58-30.85 60.86-30.85L60.86-30.85ZM126.59-35.01L126.59-35.01Q127.62-35.01 128.19-34.43L128.19-34.43L128.19-34.43Q128.77-33.86 128.77-32.90L128.77-32.90L128.77-32.90Q128.77-32.13 128.51-31.55L128.51-31.55L118.53-1.60L118.53-1.60Q118.27-0.90 117.66-0.45L117.66-0.45L117.66-0.45Q117.06 0 116.22 0L116.22 0L116.22 0Q115.39 0 114.72-0.45L114.72-0.45L114.72-0.45Q114.05-0.90 113.86-1.60L113.86-1.60L106.18-27.07L98.50-1.60L98.50-1.60Q98.24-0.83 97.60-0.42L97.60-0.42L97.60-0.42Q96.96 0 96.19 0L96.19 0L96.19 0Q95.36 0 94.75-0.45L94.75-0.45L94.75-0.45Q94.14-0.90 93.82-1.60L93.82-1.60L83.84-31.55L83.84-31.55Q83.65-32.32 83.65-32.90L83.65-32.90L83.65-32.90Q83.65-35.01 85.70-35.01L85.70-35.01L85.70-35.01Q87.49-35.01 88.13-33.15L88.13-33.15L96.32-8.19L103.87-33.09L103.87-33.09Q104.13-33.98 104.74-34.50L104.74-34.50L104.74-34.50Q105.34-35.01 106.30-35.01L106.30-35.01L106.30-35.01Q107.26-35.01 107.87-34.50L107.87-34.50L107.87-34.50Q108.48-33.98 108.74-33.09L108.74-33.09L116.10-8.32L124.22-33.15L124.22-33.15Q124.86-35.01 126.59-35.01L126.59-35.01ZM150.53-35.33L150.53-35.33Q155.26-35.33 158.91-33.12L158.91-33.12L158.91-33.12Q162.56-30.91 164.58-27.01L164.58-27.01L164.58-27.01Q166.59-23.10 166.59-18.11L166.59-18.11L166.59-18.11Q166.59-17.09 165.95-16.48L165.95-16.48L165.95-16.48Q165.31-15.87 164.29-15.87L164.29-15.87L138.43-15.87L138.43-15.87Q138.94-10.62 142.53-7.36L142.53-7.36L142.53-7.36Q146.11-4.10 151.49-4.10L151.49-4.10L151.49-4.10Q153.79-4.10 156.13-4.90L156.13-4.90L156.13-4.90Q158.46-5.70 159.87-6.91L159.87-6.91L159.87-6.91Q160.70-7.55 161.60-7.55L161.60-7.55L161.60-7.55Q162.30-7.55 163.01-7.04L163.01-7.04L163.01-7.04Q163.84-6.27 163.84-5.31L163.84-5.31L163.84-5.31Q163.84-4.48 163.14-3.84L163.14-3.84L163.14-3.84Q161.02-2.05 157.76-0.86L157.76-0.86L157.76-0.86Q154.50 0.32 151.49 0.32L151.49 0.32L151.49 0.32Q146.37 0.32 142.34-1.95L142.34-1.95L142.34-1.95Q138.30-4.22 136.03-8.29L136.03-8.29L136.03-8.29Q133.76-12.35 133.76-17.47L133.76-17.47L133.76-17.47Q133.76-22.66 135.90-26.72L135.90-26.72L135.90-26.72Q138.05-30.78 141.86-33.06L141.86-33.06L141.86-33.06Q145.66-35.33 150.53-35.33L150.53-35.33ZM150.53-30.91L150.53-30.91Q145.66-30.91 142.46-27.90L142.46-27.90L142.46-27.90Q139.26-24.90 138.56-19.97L138.56-19.97L161.98-19.97L161.98-19.97Q161.47-24.90 158.40-27.90L158.40-27.90L158.40-27.90Q155.33-30.91 150.53-30.91L150.53-30.91ZM190.72-35.39L190.72-35.39Q193.41-35.39 194.98-34.69L194.98-34.69L194.98-34.69Q196.54-33.98 196.54-32.70L196.54-32.70L196.54-32.70Q196.54-32.32 196.48-32.13L196.48-32.13L196.48-32.13Q196.22-31.23 195.68-30.91L195.68-30.91L195.68-30.91Q195.14-30.59 194.18-30.59L194.18-30.59L194.18-30.59Q193.60-30.59 192.19-30.72L192.19-30.72L192.19-30.72Q191.68-30.78 190.66-30.78L190.66-30.78L190.66-30.78Q185.86-30.78 182.82-28.22L182.82-28.22L182.82-28.22Q179.78-25.66 179.78-21.57L179.78-21.57L179.78-2.43L179.78-2.43Q179.78-1.28 179.14-0.64L179.14-0.64L179.14-0.64Q178.50 0 177.34 0L177.34 0L177.34 0Q176.19 0 175.55-0.64L175.55-0.64L175.55-0.64Q174.91-1.28 174.91-2.43L174.91-2.43L174.91-32.58L174.91-32.58Q174.91-33.73 175.55-34.37L175.55-34.37L175.55-34.37Q176.19-35.01 177.34-35.01L177.34-35.01L177.34-35.01Q178.50-35.01 179.14-34.37L179.14-34.37L179.14-34.37Q179.78-33.73 179.78-32.58L179.78-32.58L179.78-29.76L179.78-29.76Q181.63-32.45 184.51-33.92L184.51-33.92L184.51-33.92Q187.39-35.39 190.72-35.39L190.72-35.39ZM219.14-35.33L219.14-35.33Q223.87-35.33 227.52-33.12L227.52-33.12L227.52-33.12Q231.17-30.91 233.18-27.01L233.18-27.01L233.18-27.01Q235.20-23.10 235.20-18.11L235.20-18.11L235.20-18.11Q235.20-17.09 234.56-16.48L234.56-16.48L234.56-16.48Q233.92-15.87 232.90-15.87L232.90-15.87L207.04-15.87L207.04-15.87Q207.55-10.62 211.14-7.36L211.14-7.36L211.14-7.36Q214.72-4.10 220.10-4.10L220.10-4.10L220.10-4.10Q222.40-4.10 224.74-4.90L224.74-4.90L224.74-4.90Q227.07-5.70 228.48-6.91L228.48-6.91L228.48-6.91Q229.31-7.55 230.21-7.55L230.21-7.55L230.21-7.55Q230.91-7.55 231.62-7.04L231.62-7.04L231.62-7.04Q232.45-6.27 232.45-5.31L232.45-5.31L232.45-5.31Q232.45-4.48 231.74-3.84L231.74-3.84L231.74-3.84Q229.63-2.05 226.37-0.86L226.37-0.86L226.37-0.86Q223.10 0.32 220.10 0.32L220.10 0.32L220.10 0.32Q214.98 0.32 210.94-1.95L210.94-1.95L210.94-1.95Q206.91-4.22 204.64-8.29L204.64-8.29L204.64-8.29Q202.37-12.35 202.37-17.47L202.37-17.47L202.37-17.47Q202.37-22.66 204.51-26.72L204.51-26.72L204.51-26.72Q206.66-30.78 210.46-33.06L210.46-33.06L210.46-33.06Q214.27-35.33 219.14-35.33L219.14-35.33ZM219.14-30.91L219.14-30.91Q214.27-30.91 211.07-27.90L211.07-27.90L211.07-27.90Q207.87-24.90 207.17-19.97L207.17-19.97L230.59-19.97L230.59-19.97Q230.08-24.90 227.01-27.90L227.01-27.90L227.01-27.90Q223.94-30.91 219.14-30.91L219.14-30.91ZM277.18-33.15L277.18-33.15Q277.25-32.96 277.25-32.58L277.25-32.58L277.25-17.54L277.25-17.54Q277.25-12.54 274.91-8.45L274.91-8.45L274.91-8.45Q272.58-4.35 268.51-2.02L268.51-2.02L268.51-2.02Q264.45 0.32 259.46 0.32L259.46 0.32L259.46 0.32Q254.46 0.32 250.40-2.02L250.40-2.02L250.40-2.02Q246.34-4.35 244-8.45L244-8.45L244-8.45Q241.66-12.54 241.66-17.54L241.66-17.54L241.66-17.54Q241.66-22.53 243.94-26.59L243.94-26.59L243.94-26.59Q246.21-30.66 250.14-32.99L250.14-32.99L250.14-32.99Q254.08-35.33 258.94-35.33L258.94-35.33L258.94-35.33Q263.10-35.33 266.56-33.57L266.56-33.57L266.56-33.57Q270.02-31.81 272.26-28.74L272.26-28.74L272.26-47.49L272.26-47.49Q272.26-48.58 272.96-49.28L272.96-49.28L272.96-49.28Q273.66-49.98 274.75-49.98L274.75-49.98L274.75-49.98Q275.84-49.98 276.51-49.28L276.51-49.28L276.51-49.28Q277.18-48.58 277.18-47.49L277.18-47.49L277.18-33.15ZM259.46-4.16L259.46-4.16Q263.10-4.16 266.05-5.92L266.05-5.92L266.05-5.92Q268.99-7.68 270.69-10.72L270.69-10.72L270.69-10.72Q272.38-13.76 272.38-17.54L272.38-17.54L272.38-17.54Q272.38-18.62 272.32-19.14L272.32-19.14L272.32-19.14Q272.26-19.26 272.26-19.46L272.26-19.46L272.26-19.46Q271.62-24.45 268.06-27.65L268.06-27.65L268.06-27.65Q264.51-30.85 259.46-30.85L259.46-30.85L259.46-30.85Q255.81-30.85 252.83-29.12L252.83-29.12L252.83-29.12Q249.86-27.39 248.16-24.35L248.16-24.35L248.16-24.35Q246.46-21.31 246.46-17.54L246.46-17.54L246.46-17.54Q246.46-13.76 248.16-10.72L248.16-10.72L248.16-10.72Q249.86-7.68 252.83-5.92L252.83-5.92L252.83-5.92Q255.81-4.16 259.46-4.16L259.46-4.16ZM329.22-27.52L329.22-27.52Q330.30-27.52 331.01-26.85L331.01-26.85L331.01-26.85Q331.71-26.18 331.71-25.09L331.71-25.09L331.71-25.09Q331.71-24.06 331.01-23.36L331.01-23.36L331.01-23.36Q330.30-22.66 329.22-22.66L329.22-22.66L309.18-22.66L309.18-2.50L309.18-2.50Q309.18-1.47 308.48-0.74L308.48-0.74L308.48-0.74Q307.78 0 306.69 0L306.69 0L306.69 0Q305.66 0 304.93-0.74L304.93-0.74L304.93-0.74Q304.19-1.47 304.19-2.50L304.19-2.50L304.19-47.49L304.19-47.49Q304.19-48.58 304.93-49.28L304.93-49.28L304.93-49.28Q305.66-49.98 306.69-49.98L306.69-49.98L336.70-49.98L336.70-49.98Q337.79-49.98 338.50-49.28L338.50-49.28L338.50-49.28Q339.20-48.58 339.20-47.55L339.20-47.55L339.20-47.55Q339.20-46.53 338.50-45.86L338.50-45.86L338.50-45.86Q337.79-45.18 336.70-45.18L336.70-45.18L309.18-45.18L309.18-27.52L329.22-27.52ZM348.54-32.51L348.54-32.51Q348.54-33.60 349.25-34.30L349.25-34.30L349.25-34.30Q349.95-35.01 351.04-35.01L351.04-35.01L351.04-35.01Q352.13-35.01 352.80-34.30L352.80-34.30L352.80-34.30Q353.47-33.60 353.47-32.51L353.47-32.51L353.47-2.50L353.47-2.50Q353.47-1.41 352.80-0.70L352.80-0.70L352.80-0.70Q352.13 0 351.04 0L351.04 0L351.04 0Q349.95 0 349.25-0.70L349.25-0.70L349.25-0.70Q348.54-1.41 348.54-2.50L348.54-2.50L348.54-32.51ZM351.04-48.64L351.04-48.64Q352.45-48.64 353.47-47.68L353.47-47.68L353.47-47.68Q354.50-46.72 354.50-45.18L354.50-45.18L354.50-45.18Q354.50-43.71 353.47-42.69L353.47-42.69L353.47-42.69Q352.45-41.66 350.98-41.66L350.98-41.66L350.98-41.66Q349.50-41.66 348.51-42.69L348.51-42.69L348.51-42.69Q347.52-43.71 347.52-45.18L347.52-45.18L347.52-45.18Q347.52-46.72 348.54-47.68L348.54-47.68L348.54-47.68Q349.57-48.64 351.04-48.64L351.04-48.64ZM382.59-35.39L382.59-35.39Q387.14-35.39 390.75-33.47L390.75-33.47L390.75-33.47Q394.37-31.55 396.42-27.87L396.42-27.87L396.42-27.87Q398.46-24.19 398.46-19.07L398.46-19.07L398.46-2.43L398.46-2.43Q398.46-1.41 397.76-0.70L397.76-0.70L397.76-0.70Q397.06 0 396.03 0L396.03 0L396.03 0Q394.94 0 394.24-0.70L394.24-0.70L394.24-0.70Q393.54-1.41 393.54-2.43L393.54-2.43L393.54-19.07L393.54-19.07Q393.54-24.77 390.37-27.74L390.37-27.74L390.37-27.74Q387.20-30.72 382.08-30.72L382.08-30.72L382.08-30.72Q378.94-30.72 376.42-29.50L376.42-29.50L376.42-29.50Q373.89-28.29 372.42-26.14L372.42-26.14L372.42-26.14Q370.94-24 370.94-21.38L370.94-21.38L370.94-2.43L370.94-2.43Q370.94-1.34 370.27-0.67L370.27-0.67L370.27-0.67Q369.60 0 368.51 0L368.51 0L368.51 0Q367.42 0 366.72-0.67L366.72-0.67L366.72-0.67Q366.02-1.34 366.02-2.43L366.02-2.43L366.02-32.51L366.02-32.51Q366.02-33.60 366.72-34.30L366.72-34.30L366.72-34.30Q367.42-35.01 368.51-35.01L368.51-35.01L368.51-35.01Q369.60-35.01 370.27-34.30L370.27-34.30L370.27-34.30Q370.94-33.60 370.94-32.51L370.94-32.51L370.94-30.34L370.94-30.34Q373.06-32.70 376.06-34.05L376.06-34.05L376.06-34.05Q379.07-35.39 382.59-35.39L382.59-35.39ZM425.28-35.33L425.28-35.33Q430.27-35.33 434.34-32.99L434.34-32.99L434.34-32.99Q438.40-30.66 440.74-26.56L440.74-26.56L440.74-26.56Q443.07-22.46 443.07-17.47L443.07-17.47L443.07-2.43L443.07-2.43Q443.07-1.41 442.37-0.70L442.37-0.70L442.37-0.70Q441.66 0 440.58 0L440.58 0L440.58 0Q439.49 0 438.78-0.67L438.78-0.67L438.78-0.67Q438.08-1.34 438.08-2.43L438.08-2.43L438.08-6.27L438.08-6.27Q435.84-3.20 432.38-1.44L432.38-1.44L432.38-1.44Q428.93 0.32 424.77 0.32L424.77 0.32L424.77 0.32Q419.90 0.32 415.97-2.02L415.97-2.02L415.97-2.02Q412.03-4.35 409.76-8.42L409.76-8.42L409.76-8.42Q407.49-12.48 407.49-17.47L407.49-17.47L407.49-17.47Q407.49-22.46 409.82-26.56L409.82-26.56L409.82-26.56Q412.16-30.66 416.22-32.99L416.22-32.99L416.22-32.99Q420.29-35.33 425.28-35.33L425.28-35.33ZM425.28-4.16L425.28-4.16Q428.93-4.16 431.87-5.89L431.87-5.89L431.87-5.89Q434.82-7.62 436.51-10.66L436.51-10.66L436.51-10.66Q438.21-13.70 438.21-17.47L438.21-17.47L438.21-17.47Q438.21-21.25 436.51-24.29L436.51-24.29L436.51-24.29Q434.82-27.33 431.87-29.09L431.87-29.09L431.87-29.09Q428.93-30.85 425.28-30.85L425.28-30.85L425.28-30.85Q421.63-30.85 418.66-29.09L418.66-29.09L418.66-29.09Q415.68-27.33 413.98-24.29L413.98-24.29L413.98-24.29Q412.29-21.25 412.29-17.47L412.29-17.47L412.29-17.47Q412.29-13.70 413.98-10.66L413.98-10.66L413.98-10.66Q415.68-7.62 418.66-5.89L418.66-5.89L418.66-5.89Q421.63-4.16 425.28-4.16L425.28-4.16ZM469.25-35.39L469.25-35.39Q473.79-35.39 477.41-33.47L477.41-33.47L477.41-33.47Q481.02-31.55 483.07-27.87L483.07-27.87L483.07-27.87Q485.12-24.19 485.12-19.07L485.12-19.07L485.12-2.43L485.12-2.43Q485.12-1.41 484.42-0.70L484.42-0.70L484.42-0.70Q483.71 0 482.69 0L482.69 0L482.69 0Q481.60 0 480.90-0.70L480.90-0.70L480.90-0.70Q480.19-1.41 480.19-2.43L480.19-2.43L480.19-19.07L480.19-19.07Q480.19-24.77 477.02-27.74L477.02-27.74L477.02-27.74Q473.86-30.72 468.74-30.72L468.74-30.72L468.74-30.72Q465.60-30.72 463.07-29.50L463.07-29.50L463.07-29.50Q460.54-28.29 459.07-26.14L459.07-26.14L459.07-26.14Q457.60-24 457.60-21.38L457.60-21.38L457.60-2.43L457.60-2.43Q457.60-1.34 456.93-0.67L456.93-0.67L456.93-0.67Q456.26 0 455.17 0L455.17 0L455.17 0Q454.08 0 453.38-0.67L453.38-0.67L453.38-0.67Q452.67-1.34 452.67-2.43L452.67-2.43L452.67-32.51L452.67-32.51Q452.67-33.60 453.38-34.30L453.38-34.30L453.38-34.30Q454.08-35.01 455.17-35.01L455.17-35.01L455.17-35.01Q456.26-35.01 456.93-34.30L456.93-34.30L456.93-34.30Q457.60-33.60 457.60-32.51L457.60-32.51L457.60-30.34L457.60-30.34Q459.71-32.70 462.72-34.05L462.72-34.05L462.72-34.05Q465.73-35.39 469.25-35.39L469.25-35.39ZM510.98-35.33L510.98-35.33Q518.98-35.33 523.97-29.18L523.97-29.18L523.97-29.18Q524.48-28.61 524.48-27.84L524.48-27.84L524.48-27.84Q524.48-26.82 523.39-26.05L523.39-26.05L523.39-26.05Q522.82-25.66 522.18-25.66L522.18-25.66L522.18-25.66Q521.22-25.66 520.32-26.62L520.32-26.62L520.32-26.62Q518.40-28.74 516.10-29.79L516.10-29.79L516.10-29.79Q513.79-30.85 510.98-30.85L510.98-30.85L510.98-30.85Q507.46-30.85 504.70-29.15L504.70-29.15L504.70-29.15Q501.95-27.46 500.45-24.38L500.45-24.38L500.45-24.38Q498.94-21.31 498.94-17.47L498.94-17.47L498.94-17.47Q498.94-13.70 500.54-10.66L500.54-10.66L500.54-10.66Q502.14-7.62 505.02-5.89L505.02-5.89L505.02-5.89Q507.90-4.16 511.62-4.16L511.62-4.16L511.62-4.16Q516.74-4.16 519.87-6.91L519.87-6.91L519.87-6.91Q520.70-7.62 521.60-7.62L521.60-7.62L521.60-7.62Q522.37-7.62 523.01-7.10L523.01-7.10L523.01-7.10Q523.90-6.34 523.90-5.38L523.90-5.38L523.90-5.38Q523.90-4.54 523.26-3.97L523.26-3.97L523.26-3.97Q518.66 0.32 511.62 0.32L511.62 0.32L511.62 0.32Q506.62 0.32 502.66-2.02L502.66-2.02L502.66-2.02Q498.69-4.35 496.42-8.42L496.42-8.42L496.42-8.42Q494.14-12.48 494.14-17.47L494.14-17.47L494.14-17.47Q494.14-22.59 496.32-26.66L496.32-26.66L496.32-26.66Q498.50-30.72 502.34-33.02L502.34-33.02L502.34-33.02Q506.18-35.33 510.98-35.33L510.98-35.33ZM549.06-35.33L549.06-35.33Q553.79-35.33 557.44-33.12L557.44-33.12L557.44-33.12Q561.09-30.91 563.10-27.01L563.10-27.01L563.10-27.01Q565.12-23.10 565.12-18.11L565.12-18.11L565.12-18.11Q565.12-17.09 564.48-16.48L564.48-16.48L564.48-16.48Q563.84-15.87 562.82-15.87L562.82-15.87L536.96-15.87L536.96-15.87Q537.47-10.62 541.06-7.36L541.06-7.36L541.06-7.36Q544.64-4.10 550.02-4.10L550.02-4.10L550.02-4.10Q552.32-4.10 554.66-4.90L554.66-4.90L554.66-4.90Q556.99-5.70 558.40-6.91L558.40-6.91L558.40-6.91Q559.23-7.55 560.13-7.55L560.13-7.55L560.13-7.55Q560.83-7.55 561.54-7.04L561.54-7.04L561.54-7.04Q562.37-6.27 562.37-5.31L562.37-5.31L562.37-5.31Q562.37-4.48 561.66-3.84L561.66-3.84L561.66-3.84Q559.55-2.05 556.29-0.86L556.29-0.86L556.29-0.86Q553.02 0.32 550.02 0.32L550.02 0.32L550.02 0.32Q544.90 0.32 540.86-1.95L540.86-1.95L540.86-1.95Q536.83-4.22 534.56-8.29L534.56-8.29L534.56-8.29Q532.29-12.35 532.29-17.47L532.29-17.47L532.29-17.47Q532.29-22.66 534.43-26.72L534.43-26.72L534.43-26.72Q536.58-30.78 540.38-33.06L540.38-33.06L540.38-33.06Q544.19-35.33 549.06-35.33L549.06-35.33ZM549.06-30.91L549.06-30.91Q544.19-30.91 540.99-27.90L540.99-27.90L540.99-27.90Q537.79-24.90 537.09-19.97L537.09-19.97L560.51-19.97L560.51-19.97Q560.00-24.90 556.93-27.90L556.93-27.90L556.93-27.90Q553.86-30.91 549.06-30.91L549.06-30.91Z" fill="url(#editing-gradient-gradient)"/>
    </g>
  </g>
  <style>text {
  font-size: 64px;
  font-family: Arial Black;
  dominant-baseline: central;
  text-anchor: middle;
}</style>
</svg>